<!DOCTYPE svg PUBLIC "-//W3C//DTD SVG 1.1//EN" "http://www.w3.org/Graphics/SVG/1.1/DTD/svg11.dtd">
<!-- Uploaded to: SVG Repo, www.svgrepo.com, Transformed by: SVG Repo Mixer Tools -->
<svg width="800px" height="800px" viewBox="0 0 24 24" xmlns="http://www.w3.org/2000/svg" fill="none">
<g id="SVGRepo_bgCarrier" stroke-width="0"/>
<g id="SVGRepo_tracerCarrier" stroke-linecap="round" stroke-linejoin="round"/>
<g id="SVGRepo_iconCarrier">
<path fill="#ffb400" fill-rule="evenodd" d="M23 12c0-6.075-4.925-11-11-11S1 5.925 1 12s4.925 11 11 11 11-4.925 11-11zm-7.496-4.868A1 1 0 0 1 17 8v8a1 1 0 0 1-1.496.868L9 13.152V16a1 1 0 1 1-2 0V8a1 1 0 1 1 2 0v2.848l6.504-3.716zM15 9.723 11.016 12 15 14.277V9.723z" clip-rule="evenodd"/>
</g>
</svg>